<svg width="20" height="20" viewBox="0 0 20 20" fill="none" xmlns="http://www.w3.org/2000/svg">
<g id="material-symbols-light:download">
<path id="Vector" d="M10.0001 12.9807L7.05092 10.0323L7.64091 9.43234L9.58342 11.3748V4.1665H10.4167V11.3748L12.3584 9.43317L12.9492 10.0323L10.0001 12.9807ZM5.51341 15.8332C5.12953 15.8332 4.80925 15.7048 4.55258 15.4482C4.29591 15.1915 4.1673 14.8709 4.16675 14.4865V12.4673H5.00008V14.4865C5.00008 14.6148 5.05341 14.7326 5.16008 14.8398C5.26675 14.9471 5.38425 15.0004 5.51258 14.9998H14.4876C14.6154 14.9998 14.7329 14.9465 14.8401 14.8398C14.9473 14.7332 15.0006 14.6154 15.0001 14.4865V12.4673H15.8334V14.4865C15.8334 14.8704 15.7051 15.1907 15.4484 15.4473C15.1917 15.704 14.8712 15.8326 14.4867 15.8332H5.51341Z" fill="#111111"/>
</g>
</svg>
