<svg width="20" height="20" viewBox="0 0 20 20" fill="none" xmlns="http://www.w3.org/2000/svg">
<g id="material-symbols-light:download">
<path id="Vector" d="M10.0001 12.9809L7.05092 10.0326L7.64091 9.43258L9.58342 11.3751V4.16675H10.4167V11.3751L12.3584 9.43341L12.9492 10.0326L10.0001 12.9809ZM5.51341 15.8334C5.12953 15.8334 4.80925 15.7051 4.55258 15.4484C4.29591 15.1917 4.1673 14.8712 4.16675 14.4867V12.4676H5.00008V14.4867C5.00008 14.6151 5.05341 14.7329 5.16008 14.8401C5.26675 14.9473 5.38425 15.0006 5.51258 15.0001H14.4876C14.6154 15.0001 14.7329 14.9467 14.8401 14.8401C14.9473 14.7334 15.0006 14.6156 15.0001 14.4867V12.4676H15.8334V14.4867C15.8334 14.8706 15.7051 15.1909 15.4484 15.4476C15.1917 15.7042 14.8712 15.8329 14.4867 15.8334H5.51341Z" fill="#F8F9FA"/>
</g>
</svg>
